<?xml version="1.0" encoding="windows-1252"?>
<!-- Generator: Adobe Illustrator 19.0.0, SVG Export Plug-In . SVG Version: 6.00 Build 0)  -->
<svg version="1.1" id="Layer_1" xmlns="http://www.w3.org/2000/svg" xmlns:xlink="http://www.w3.org/1999/xlink" x="0px" y="0px" viewBox="0 0 496.2 496.2" style="enable-background:new 0 0 496.2 496.2;" xml:space="preserve">
<path style="fill:#FABC3D;" d="M496.2,248.1C496.2,111.1,385.1,0,248.1,0S0,111.1,0,248.1s111.1,248.1,248.1,248.1  S496.2,385.1,496.2,248.1z"/>
<path style="fill:#353535;" d="M347.6,364.3c0,3.8-3.1,6.9-6.9,6.9l0,0c-3.8,0-6.9-3.1-6.9-6.9v-17.7c0-3.8,3.1-6.9,6.9-6.9l0,0  c3.8,0,6.9,3.1,6.9,6.9V364.3z"/>
<path style="fill:#B2162D;" d="M271.6,196.7c-79.9,0-69.6,165.7-69.6,165.7c0,15.4,12.5,27.9,27.9,27.9h83.2  c15.4,0,27.9-12.5,27.9-27.9C341.2,362.5,351.5,196.7,271.6,196.7z"/>
<path style="fill:#91132B;" d="M202.1,362.5c0,15.4,12.5,27.9,27.9,27.9h83.2c15.4,0,27.9-12.5,27.9-27.9c0,0,0.6-10.1,0.4-25.3  H201.7C201.4,352.4,202.1,362.5,202.1,362.5z"/>
<path style="fill:#EB9783;" d="M271.6,204.8c-12.7,0-22.4,5.2-30,13.6h60l0,0C294.1,210,284.3,204.8,271.6,204.8z"/>
<path style="fill:#91132B;" d="M241.6,222.6h60v-4.2l0,0c-0.2-0.2-0.5-0.5-0.7-0.7h-58.6c-0.2,0.2-0.5,0.5-0.7,0.7L241.6,222.6  L241.6,222.6z"/>
<g>
	<circle style="fill:#911029;" cx="271" cy="263.9" r="16.8"/>
	<circle style="fill:#911029;" cx="271" cy="341.4" r="16.8"/>
</g>
<circle style="fill:#424242;" cx="271" cy="341.4" r="11.8"/>
<path style="fill:#605F5F;" d="M264,347.4c-3.6-3.6-3.6-9.4,0-13s9.4-3.6,13,0S267.6,350.9,264,347.4z"/>
<g>
	<circle style="fill:#424242;" cx="271" cy="263.9" r="13.3"/>
	<path style="fill:#424242;" d="M246.7,64.7h-16.8l3.8,20.3h9.2c10.2,0,18.4,8.2,18.4,18.4v157.8h19V98.3   C280.3,79.7,265.2,64.7,246.7,64.7z"/>
</g>
<rect x="196.3" y="128" style="fill:#E5E5E5;" width="19" height="224.8"/>
<rect x="196" y="128" style="fill:#C1C1C1;" width="9.5" height="224.7"/>
<path style="fill:#424242;" d="M238.9,64.7h-9.1c-18.6,0-33.6,15-33.6,33.6v31.4h19v-26.3c0-10.2,8.2-18.4,18.4-18.4h5.3V64.7z"/>
<path style="fill:#2B2B2B;" d="M200.7,114.8c0-1.8,2.3-3.3,5.1-3.3l0,0c2.8,0,5.1,1.5,5.1,3.3v10.9c0,1.8-10.1,1.8-10.1,0v-10.9  H200.7z"/>
<g>
	<path style="fill:#424242;" d="M199.9,122.5c0-2.1,2.6-3.8,5.9-3.8l0,0c3.3,0,5.9,1.7,5.9,3.8v3.1c0,2.1-11.8,2.1-11.8,0   L199.9,122.5L199.9,122.5z"/>
	<path style="fill:#424242;" d="M215.2,406.5c0,4.2-3.4,7.6-7.6,7.6h-3.8c-4.2,0-7.6-3.4-7.6-7.6v-53.7h18.9v53.7H215.2z"/>
</g>
<path style="fill:#353535;" d="M262.6,419.5c0,6.6-5.9,12-13.2,12h-87.5c-7.3,0-13.2-5.4-13.2-12c0,0,10.7-22.7,17.3-22.7h79.3  C251.9,396.9,262.6,419.5,262.6,419.5z"/>
<path style="fill:#424242;" d="M262.6,419.5c0,6.6-114,6.6-114,0c0,0,10.7-22.7,17.3-22.7h79.3C251.9,396.9,262.6,419.5,262.6,419.5  z"/>
<g>
	<rect x="265.3" y="214.4" style="fill:#9B9B9B;" width="11.7" height="1"/>
	<rect x="265.3" y="229.9" style="fill:#9B9B9B;" width="11.7" height="1"/>
	<rect x="265.3" y="245.4" style="fill:#9B9B9B;" width="11.7" height="1"/>
	<rect x="265.3" y="260.9" style="fill:#9B9B9B;" width="11.7" height="1"/>
	<rect x="265.3" y="198.9" style="fill:#9B9B9B;" width="11.7" height="1"/>
	<rect x="265.3" y="183.4" style="fill:#9B9B9B;" width="11.7" height="1"/>
	<rect x="265.3" y="152.4" style="fill:#9B9B9B;" width="11.7" height="1"/>
	<rect x="265.3" y="167.9" style="fill:#9B9B9B;" width="11.7" height="1"/>
	<rect x="265.3" y="136.9" style="fill:#9B9B9B;" width="11.7" height="1"/>
	<rect x="265.3" y="121.4" style="fill:#9B9B9B;" width="11.7" height="1"/>
	<rect x="265.3" y="105.9" style="fill:#9B9B9B;" width="11.7" height="1"/>
	
		<rect x="268.277" y="85.027" transform="matrix(-0.3095 -0.9509 0.9509 -0.3095 265.5487 374.5838)" style="fill:#9B9B9B;" width="1" height="11.7"/>
	
		<rect x="260.119" y="74.522" transform="matrix(-0.7037 -0.7105 0.7105 -0.7037 386.6984 322.6098)" style="fill:#9B9B9B;" width="1" height="12.3"/>
	<rect x="246.4" y="69.5" style="fill:#9B9B9B;" width="1" height="11.7"/>
</g>
<g>
</g>
<g>
</g>
<g>
</g>
<g>
</g>
<g>
</g>
<g>
</g>
<g>
</g>
<g>
</g>
<g>
</g>
<g>
</g>
<g>
</g>
<g>
</g>
<g>
</g>
<g>
</g>
<g>
</g>
</svg>